<?xml version="1.0" encoding="UTF-8"?><svg xmlns="http://www.w3.org/2000/svg" xmlns:xlink="http://www.w3.org/1999/xlink" height="256.0" preserveAspectRatio="xMidYMid" version="1.1" viewBox="0.0 0.0 256.0 256.0" width="256.0" zoomAndPan="magnify">
 <g>
  <path d="m128 0c-70.693 0-128 57.307-128 128 0 70.69 57.307 128 128 128 70.69 0 128-57.31 128-128 0-70.693-57.31-128-128-128z" fill="#40B3E0"/>
  <path d="m190.28 73.631l-22.86 115.27s-3.2 7.99-11.99 4.15l-52.76-40.44-19.181-9.28-32.294-10.87s-4.956-1.76-5.436-5.59c-0.479-3.84 5.596-5.92 5.596-5.92l128.38-50.357c-0.01 0 10.54-4.636 10.54 3.038" fill="#fff"/>
  <path d="m98.618 187.6s-1.54-0.14-3.459-6.22c-1.918-6.07-11.67-38.05-11.67-38.05l77.541-49.236s4.47-2.718 4.31 0c0 0 0.8 0.48-1.6 2.718-2.39 2.238-60.91 54.838-60.91 54.838" fill="#D2E5F1"/>
  <path d="m122.9 168.12l-20.87 19.02s-1.63 1.24-3.412 0.46l3.992-35.34" fill="#B5CFE4"/>
 </g>
</svg>