<?xml version="1.0" encoding="UTF-8"?><svg xmlns="http://www.w3.org/2000/svg" xmlns:xlink="http://www.w3.org/1999/xlink" height="512.0" preserveAspectRatio="xMidYMid meet" version="1.0" viewBox="0.0 0.0 512.0 512.0" width="512.0" zoomAndPan="magnify"><linearGradient gradientTransform="matrix(1 0 0 -1 0 512.39)" gradientUnits="userSpaceOnUse" id="a" x1="256.05" x2="256.05" xlink:actuate="onLoad" xlink:show="other" xlink:type="simple" xmlns:xlink="http://www.w3.org/1999/xlink" y1="512.34" y2=".34"><stop offset="0" stop-color="#f704fe"/><stop offset="1" stop-color="#24bce3"/></linearGradient><circle clip-rule="evenodd" cx="256" cy="256" fill="url(#a)" fill-rule="evenodd" r="256"/><g><g clip-rule="evenodd" fill="#fffffe" fill-rule="evenodd" id="change1_1"><path d="M246.2,304.5c1,0,2,0.5,2.7,1.4l61.2,86.9c2.7,3.8,6.9,5.5,11.4,4.6c4.5-0.8,7.9-4,9-8.5 l65.3-260.4c1.1-4.2-0.3-8.5-3.5-11.4c-3.3-2.9-7.7-3.6-11.8-2L122.9,218.9c-5.1,2-7.1,6.7-7.2,10.3s1.6,8.3,6.6,10.6l76.5,35.4 c1,0.5,1.8,1.5,1.8,2.7l7.9,91.2l34.7-62.9c0.5-1,1.6-1.6,2.7-1.6C246.1,304.5,246.1,304.5,246.2,304.5L246.2,304.5L246.2,304.5z M319.4,404.1c-5.7,0-11.1-2.7-14.5-7.6l-58.2-82.7l-37.4,67.7c-0.7,1.2-2.1,1.9-3.5,1.6s-2.5-1.4-2.5-2.9l-8.7-99.9l-74.8-34.5 c-6.6-3.1-10.6-9.4-10.4-16.7c0.2-7.2,4.5-13.4,11.2-16.1l0,0L378,109.1c6.3-2.5,13.4-1.4,18.4,3.1c5.1,4.4,7.2,11.3,5.6,17.9 l-65.3,260.4c-1.7,6.9-7.1,11.9-14.1,13.2C321.5,404,320.5,404.1,319.4,404.1L319.4,404.1L319.4,404.1z"/><path d="M246.2,311c-0.7,0-1.4-0.2-2-0.7c-1.4-1.1-1.7-3.1-0.6-4.5l130.6-170.1l-174.6,145 c-1.4,1.2-3.4,1-4.6-0.4c-1.2-1.4-1-3.4,0.4-4.6l196.9-163.4c1.3-1,3.1-1,4.3,0.1c1.2,1.2,1.3,3,0.3,4.3l-148.2,193 C248.1,310.5,247.1,311,246.2,311L246.2,311L246.2,311z"/><path d="M206.4,383.2c-1,0-2-0.5-2.7-1.4c-1-1.4-0.7-3.5,0.8-4.5l60.6-42.7c1.4-1,3.5-0.7,4.5,0.8 c1,1.4,0.7,3.5-0.8,4.5l-60.6,42.7C207.8,383,207.1,383.2,206.4,383.2L206.4,383.2z"/></g></g></svg>